<?xml version="1.0" encoding="utf-8"?>
<!-- Generator: Adobe Illustrator 21.0.0, SVG Export Plug-In . SVG Version: 6.00 Build 0)  -->
<svg version="1.1" id="Layer_1" xmlns="http://www.w3.org/2000/svg" xmlns:xlink="http://www.w3.org/1999/xlink" x="0px" y="0px"
	 viewBox="0 0 18 18" style="enable-background:new 0 0 18 18;" xml:space="preserve">
<g id="surface1">
	<path d="M9,0L8.4,0.7c0,0-1.5,1.8-2.9,4C4.7,5.8,4,7,3.4,8.1s-1,2.3-1,3.3C2.4,15,5.4,18,9,18s6.6-3,6.6-6.6c0-1-0.4-2.2-1-3.3
		s-1.3-2.3-2.1-3.4c-1.5-2.2-2.9-4-2.9-4L9,0z M9,2.3c0.4,0.5,1.2,1.4,2.3,3.2c0.8,1,1.4,2.2,2,3.3s0.8,2,0.8,2.6
		c0,2.9-2.3,5.1-5.1,5.1s-5.1-2.3-5.1-5.1c0-0.6,0.3-1.6,0.8-2.6s1.2-2.3,1.9-3.3C7.8,3.8,8.6,2.8,9,2.3z M5.3,11.4
		c0,2,1.7,3.7,3.7,3.7v-1.5c-1.2,0-2.2-1-2.2-2.2C6.8,11.4,5.3,11.4,5.3,11.4z"/>
</g>
</svg>
