<?xml version="1.0" encoding="utf-8"?>
<!-- Generator: Adobe Illustrator 21.0.0, SVG Export Plug-In . SVG Version: 6.00 Build 0)  -->
<svg version="1.1" id="Layer_1" xmlns="http://www.w3.org/2000/svg" xmlns:xlink="http://www.w3.org/1999/xlink" x="0px" y="0px"
	 viewBox="0 0 18 18" style="enable-background:new 0 0 18 18;" xml:space="preserve">
<g id="surface1">
	<path d="M11.9,0C10.3,0,9,1.3,9,3h1.5c0-0.9,0.5-1.5,1.4-1.5c0.9,0,1.6,0.7,1.6,1.6s-0.6,1.4-1.6,1.4H0V6h11.9
		C13.6,6,15,4.7,15,3.1S13.7,0,11.9,0z M0,8.3v1.5h14.6c1,0,1.9,0.8,1.9,1.9s-0.8,1.9-1.9,1.9c-0.5,0-1-0.2-1.3-0.5
		s-0.5-0.8-0.5-1.7h-1.5c0,1.1,0.4,2.1,1,2.8s1.5,1,2.4,1c1.9,0,3.4-1.5,3.4-3.4s-1.5-3.4-3.4-3.4H0z M0,12v1.5h5.9
		c0.9,0,1.6,0.6,1.6,1.5S6.9,16.5,6,16.5S4.5,15.9,4.5,15H3c0,1.7,1.4,3,3,3s3-1.3,3-3s-1.4-3-3.1-3H0z"/>
</g>
</svg>
