<?xml version="1.0" encoding="utf-8"?>
<!-- Generator: Adobe Illustrator 21.0.0, SVG Export Plug-In . SVG Version: 6.00 Build 0)  -->
<svg version="1.1" id="Layer_1" xmlns="http://www.w3.org/2000/svg" xmlns:xlink="http://www.w3.org/1999/xlink" x="0px" y="0px"
	 viewBox="0 0 14 14" style="enable-background:new 0 0 14 14;" xml:space="preserve">
<g id="surface1">
	<g>
		<path d="M0.7,0.2L0.2,0.7L6.5,7l-6.3,6.3l0.5,0.5L7,7.5l6.3,6.3l0.5-0.5L7.5,7l6.3-6.3l-0.5-0.5L7,6.5L0.7,0.2z"/>
		<path d="M0.7,14L0,13.3l0.1-0.1L6.3,7L0,0.7L0.7,0L7,6.3L13.3,0L14,0.7l-0.1,0.1L7.7,7l6.3,6.3L13.3,14l-0.1-0.1L7,7.7L0.7,14z
			 M7,7.3l6.3,6.3l0.3-0.3L7.3,7l6.3-6.3l-0.3-0.3L7,6.7L0.7,0.3L0.3,0.7L6.7,7l-6.3,6.3l0.3,0.3L7,7.3z"/>
	</g>
</g>
</svg>
