<?xml version="1.0" encoding="utf-8"?>
<!-- Generator: Adobe Illustrator 21.0.0, SVG Export Plug-In . SVG Version: 6.00 Build 0)  -->
<svg version="1.1" id="Layer_1" xmlns="http://www.w3.org/2000/svg" xmlns:xlink="http://www.w3.org/1999/xlink" x="0px" y="0px"
	 viewBox="0 0 24 24" style="enable-background:new 0 0 24 24;" xml:space="preserve">
<style type="text/css">
	.st0{stroke:#000000;stroke-width:0.25;stroke-miterlimit:10;}
</style>
<g id="surface1">
	<path class="st0" d="M19,23.4c-0.2,0-0.3,0-0.5-0.1l-6.4-4l-6.3,4c-0.1,0.1-0.3,0.2-0.5,0.2c-0.2,0-0.3,0-0.5-0.1
		c-0.5-0.2-0.5-0.7-0.5-0.9v-0.1L6.2,15l-5.7-4.7C0,10,0,9.6,0,9.4C0,9,0.4,8.6,0.9,8.6l7.4-0.6l2.8-6.9c0.1-0.2,0.3-0.6,0.8-0.6
		c0.6,0,0.9,0.3,1,0.7l2.8,6.8c0,0,7.5,0.6,7.5,0.6c0.5,0,0.7,0.4,0.8,0.6c0.2,0.4,0,0.8-0.2,1L18,15l1.9,7.3v0.1
		c0,0.2,0,0.6-0.4,0.9C19.4,23.4,19.2,23.4,19,23.4z M12,17.4c0.2,0,0.3,0,0.5,0.1l4.9,3.1L16,15.1c-0.2-0.4,0-0.8,0.2-1l4.5-3.7
		c0,0-5.7-0.4-5.7-0.4c-0.5,0-0.7-0.4-0.8-0.6L12,4.1L9.9,9.3C9.8,9.7,9.5,10,9,10l-5.7,0.4l4.5,3.7c0.3,0.3,0.4,0.6,0.2,1l-1.4,5.5
		l4.8-3C11.7,17.4,11.9,17.4,12,17.4z"/>
	<path class="st0" d="M11.9,1c-0.2,0-0.3,0.1-0.4,0.3L8.6,8.5L0.9,9.1c-0.2,0-0.4,0.1-0.4,0.3c0,0.2,0,0.4,0.2,0.5l6,4.9l-1.8,7.6
		c0,0.2,0,0.4,0.2,0.5s0.4,0.1,0.5,0l6.6-4.2l6.6,4.2c0.2,0.1,0.4,0.1,0.5,0c0.2-0.1,0.2-0.3,0.2-0.5l-1.9-7.6l5.9-4.9
		c0.1-0.1,0.2-0.3,0.1-0.5c-0.1-0.2-0.2-0.3-0.4-0.3l-7.8-0.6l-2.9-7.2C12.4,1.1,12.2,1,11.9,1z M12,2.8l2.6,6.4
		c0.1,0.2,0.2,0.3,0.4,0.3l6.9,0.5l-5.3,4.5c-0.1,0.1-0.2,0.3-0.1,0.5l1.6,6.7l-5.8-3.7c-0.2-0.1-0.4-0.1-0.5,0L6,21.6l1.6-6.7
		c0.1-0.2,0-0.4-0.1-0.5L2.1,10L9,9.5c0.2,0,0.4-0.1,0.4-0.3L12,2.8z"/>
	<path class="st0" d="M19,23.4c-0.2,0-0.3,0-0.5-0.1l-6.4-4l-6.3,4c-0.1,0.1-0.3,0.2-0.5,0.2c-0.2,0-0.3,0-0.5-0.1
		c-0.5-0.2-0.5-0.7-0.5-0.9v-0.1L6.2,15l-5.7-4.7C0,10,0,9.6,0,9.4C0,9,0.4,8.6,0.9,8.6l7.4-0.6l2.8-6.9c0.1-0.2,0.3-0.6,0.8-0.6
		c0.6,0,0.9,0.3,1,0.7l2.8,6.8c0,0,7.5,0.6,7.5,0.6c0.5,0,0.7,0.4,0.8,0.6c0.2,0.4,0,0.8-0.2,1L18,15l1.9,7.3v0.1
		c0,0.2,0,0.6-0.4,0.9C19.4,23.4,19.2,23.4,19,23.4z M12,17.4c0.2,0,0.3,0,0.5,0.1l4.9,3.1L16,15.1c-0.2-0.4,0-0.8,0.2-1l4.5-3.7
		c0,0-5.7-0.4-5.7-0.4c-0.5,0-0.7-0.4-0.8-0.6L12,4.1L9.9,9.3C9.8,9.7,9.5,10,9,10l-5.7,0.4l4.5,3.7c0.3,0.3,0.4,0.6,0.2,1l-1.4,5.5
		l4.8-3C11.7,17.4,11.9,17.4,12,17.4z"/>
	<path class="st0" d="M11.9,1c-0.2,0-0.3,0.1-0.4,0.3L8.6,8.5L0.9,9.1c-0.2,0-0.4,0.1-0.4,0.3c0,0.2,0,0.4,0.2,0.5l6,4.9l-1.8,7.6
		c0,0.2,0,0.4,0.2,0.5s0.4,0.1,0.5,0l6.6-4.2l6.6,4.2c0.2,0.1,0.4,0.1,0.5,0c0.2-0.1,0.2-0.3,0.2-0.5l-1.9-7.6l5.9-4.9
		c0.1-0.1,0.2-0.3,0.1-0.5c-0.1-0.2-0.2-0.3-0.4-0.3l-7.8-0.6l-2.9-7.2C12.4,1.1,12.2,1,11.9,1z M12,2.8l2.6,6.4
		c0.1,0.2,0.2,0.3,0.4,0.3l6.9,0.5l-5.3,4.5c-0.1,0.1-0.2,0.3-0.1,0.5l1.6,6.7l-5.8-3.7c-0.2-0.1-0.4-0.1-0.5,0L6,21.6l1.6-6.7
		c0.1-0.2,0-0.4-0.1-0.5L2.1,10L9,9.5c0.2,0,0.4-0.1,0.4-0.3L12,2.8z"/>
</g>
</svg>
