<?xml version="1.0" encoding="utf-8"?>
<!-- Generator: Adobe Illustrator 21.0.0, SVG Export Plug-In . SVG Version: 6.00 Build 0)  -->
<svg version="1.1" xmlns="http://www.w3.org/2000/svg" xmlns:xlink="http://www.w3.org/1999/xlink" x="0px" y="0px"
	 viewBox="0 0 24 24" style="enable-background:new 0 0 24 24;" xml:space="preserve">
<style type="text/css">
	.st0{display:none;}
	.st1{display:inline;}
	.st2{font-family:'OpenSans-SemiBold';}
	.st3{font-size:24.3537px;}
</style>
<g id="Layer_2" class="st0">
	<text transform="matrix(1 0 0 1 -0.9319 18.9983)" class="st1 st2 st3">°C</text>
</g>
<g id="Layer_2_copy_2">
	<g>
		<path d="M0.1,7c0-1.1,0.4-2,1.1-2.8C2,3.5,2.9,3.1,4,3.1c1.1,0,2,0.4,2.8,1.1C7.6,5,7.9,5.9,7.9,7c0,1.1-0.4,2-1.1,2.8
			C6,10.5,5.1,10.9,4,10.9c-0.7,0-1.3-0.2-2-0.5S1,9.6,0.6,9C0.3,8.3,0.1,7.7,0.1,7z M1.9,7c0,0.6,0.2,1,0.6,1.5S3.4,9.1,4,9.1
			s1.1-0.2,1.5-0.6S6.1,7.6,6.1,7c0-0.6-0.2-1.1-0.6-1.5S4.6,4.9,4,4.9C3.5,4.9,3,5.1,2.6,5.5S1.9,6.4,1.9,7z"/>
		<path d="M18.9,5.5c-1.6,0-2.9,0.6-3.9,1.7S13.7,10,13.7,12c0,2.1,0.5,3.7,1.3,4.8c0.9,1.1,2.2,1.6,3.9,1.6c0.7,0,1.5-0.1,2.1-0.2
			s1.4-0.3,2.2-0.6v2.4c-1.4,0.5-2.9,0.8-4.6,0.8c-2.5,0-4.5-0.8-5.9-2.3c-1.4-1.5-2-3.7-2-6.6c0-1.8,0.3-3.4,1-4.7
			c0.7-1.4,1.6-2.4,2.9-3.1c1.3-0.7,2.7-1.1,4.4-1.1c1.8,0,3.4,0.4,4.9,1.1l-1,2.4C22.3,6.3,21.7,6,21,5.8S19.7,5.5,18.9,5.5z"/>
	</g>
</g>
<g id="Layer_2_copy" class="st0">
	<g class="st1">
		<path d="M1.4,7.1c0-1.1,0.4-2,1.1-2.8c0.8-0.8,1.7-1.2,2.8-1.2c1.1,0,2,0.4,2.8,1.1C8.8,5.1,9.2,6,9.2,7.1c0,1.1-0.4,2-1.1,2.8
			S6.4,11,5.3,11c-0.7,0-1.3-0.2-2-0.5S2.3,9.7,1.9,9.1C1.6,8.5,1.4,7.8,1.4,7.1z M3.2,7.1c0,0.6,0.2,1,0.6,1.5
			C4.2,9,4.7,9.2,5.3,9.2c0.6,0,1.1-0.2,1.5-0.6s0.6-0.9,0.6-1.5c0-0.6-0.2-1.1-0.6-1.5C6.4,5.2,5.9,5,5.3,5S4.2,5.2,3.8,5.6
			S3.2,6.5,3.2,7.1z"/>
		<path d="M15.6,20.8h-2.8V3.4h9.8v2.4h-7v5.4h6.6v2.4h-6.6V20.8z"/>
	</g>
</g>
</svg>
