<?xml version="1.0" encoding="utf-8"?>
<!-- Generator: Adobe Illustrator 21.0.0, SVG Export Plug-In . SVG Version: 6.00 Build 0)  -->
<svg version="1.1" id="Layer_1" xmlns="http://www.w3.org/2000/svg" xmlns:xlink="http://www.w3.org/1999/xlink" x="0px" y="0px"
	 viewBox="0 0 100 100" style="enable-background:new 0 0 100 100;" xml:space="preserve">
<g id="surface1">
	<path d="M0,5.6v69.2h19.2v19.6l6.3-5l18.1-14.5H100V5.6H0z M7.7,13.3h84.6v53.8H41L39.9,68l-13,10.3V67.1H7.7V13.3z M23.9,21
		l-0.8,2.6l-7.5,23.1l-0.2,0.6v4.4h7.7v-3.4l0.1-0.5h7.5l0.1,0.5v3.4h7.7v-4.4l-0.2-0.6l-7.5-23.1L29.9,21H23.9z M65.4,28.7v3.8
		H53.8v7.7h17.1c-0.6,1.1-1.4,2.3-2.3,3.5c-0.3,0.4-0.6,0.7-1,1.1c-1.9-1.7-3.2-3.2-3.2-3.2l-5.8,5c0,0,1.2,1.3,3.1,3.1
		c-2.3,1.2-4.8,2-7.9,2v7.7c5.7,0,10.4-1.9,14.2-4.6c3.5,2.4,7.8,4.6,12.7,4.6v-7.7c-2,0-4.5-1-7-2.4c0.3-0.4,0.7-0.7,1-1.1
		c2.5-3.2,3.8-6,4.7-8.1h5.2v-7.7H73.1v-3.8H65.4z M26.9,36.6l1.2,3.6h-2.4L26.9,36.6z"/>
</g>
</svg>
