<?xml version="1.0" encoding="utf-8"?>
<!-- Generator: Adobe Illustrator 21.0.0, SVG Export Plug-In . SVG Version: 6.00 Build 0)  -->
<svg version="1.1" id="Layer_1" xmlns="http://www.w3.org/2000/svg" xmlns:xlink="http://www.w3.org/1999/xlink" x="0px" y="0px"
	 viewBox="0 0 100 100" style="enable-background:new 0 0 100 100;" xml:space="preserve">
<g id="surface1">
	<path d="M50,5C25.2,5,5,25.2,5,50s20.2,45,45,45s45-20.2,45-45S74.8,5,50,5z M50,12.5c10.5,0,19.9,4.3,26.7,11.3H23.3
		C30.1,16.8,39.5,12.5,50,12.5z M17.5,31.3h64.9c2.6,4.5,4.3,9.6,4.8,15H12.7C13.3,40.8,14.9,35.7,17.5,31.3z M12.7,53.8h74.5
		c-0.5,5.4-2.2,10.5-4.8,15H17.5C14.9,64.3,13.3,59.2,12.7,53.8z M23.3,76.3h53.4C69.9,83.2,60.5,87.5,50,87.5S30.1,83.2,23.3,76.3z
		"/>
</g>
</svg>
