<?xml version="1.0" encoding="utf-8"?>
<!-- Generator: Adobe Illustrator 21.0.0, SVG Export Plug-In . SVG Version: 6.00 Build 0)  -->
<svg version="1.1" id="Layer_1" xmlns="http://www.w3.org/2000/svg" xmlns:xlink="http://www.w3.org/1999/xlink" x="0px" y="0px"
	 viewBox="0 0 100 100" style="enable-background:new 0 0 100 100;" xml:space="preserve">
<g>
	<g>
		<path d="M26.4,33l-5.9-5.9c-1.6-1.6-4.3-1.6-5.9,0c-1.6,1.6-1.6,4.3,0,5.9l5.9,5.9c1.6,1.6,4.3,1.6,5.9,0
			C28.1,37.3,28.1,34.7,26.4,33z M95.8,58.3h-8.3c-2.3,0-4.2,1.9-4.2,4.2c0,2.3,1.9,4.2,4.2,4.2h8.3c2.3,0,4.2-1.9,4.2-4.2
			C100,60.2,98.1,58.3,95.8,58.3z M12.5,58.3H4.2c-2.3,0-4.2,1.9-4.2,4.2c0,2.3,1.9,4.2,4.2,4.2h8.3c2.3,0,4.2-1.9,4.2-4.2
			C16.7,60.2,14.8,58.3,12.5,58.3z M70.8,79.2H29.2c-2.3,0-4.2,1.9-4.2,4.2c0,2.3,1.9,4.2,4.2,4.2h41.7c2.3,0,4.2-1.9,4.2-4.2
			C75,81,73.1,79.2,70.8,79.2z M85.4,27.1c-1.6-1.6-4.3-1.6-5.9,0L73.6,33c-1.6,1.6-1.6,4.3,0,5.9c1.6,1.6,4.3,1.6,5.9,0l5.9-5.9
			C87,31.4,87,28.8,85.4,27.1z M50,29.2c2.3,0,4.2-1.9,4.2-4.2v-8.3c0-2.3-1.9-4.2-4.2-4.2c-2.3,0-4.2,1.9-4.2,4.2V25
			C45.8,27.3,47.7,29.2,50,29.2z M50,37.5c-13.8,0-25,11.2-25,25c0,2.9,0.5,5.7,1.5,8.3h9.1c-1.4-2.5-2.2-5.3-2.2-8.3
			c0-9.2,7.5-16.7,16.7-16.7c9.2,0,16.7,7.5,16.7,16.7c0,3-0.8,5.9-2.2,8.3h9.1c0.9-2.6,1.5-5.4,1.5-8.3C75,48.7,63.8,37.5,50,37.5z
			 M50,71.4c1.2,0,2.1-0.9,2.1-2.1v-8l5.3,5.3c0.8,0.8,2.1,0.8,2.9,0c0.8-0.8,0.8-2.1,0-2.9l-8.8-8.8c-0.8-0.8-2.1-0.8-2.9,0
			l-8.8,8.8c-0.8,0.8-0.8,2.1,0,2.9c0.8,0.8,2.1,0.8,2.9,0l5.3-5.3v8C47.9,70.4,48.8,71.4,50,71.4z"/>
	</g>
</g>
</svg>
