<?xml version="1.0" encoding="utf-8"?>
<!-- Generator: Adobe Illustrator 21.0.0, SVG Export Plug-In . SVG Version: 6.00 Build 0)  -->
<svg version="1.1" id="Layer_1" xmlns="http://www.w3.org/2000/svg" xmlns:xlink="http://www.w3.org/1999/xlink" x="0px" y="0px"
	 viewBox="0 0 100 100" style="enable-background:new 0 0 100 100;" xml:space="preserve">
<path d="M95.8,66.7h-8.3c-2.3,0-4.2-1.9-4.2-4.2c0-2.3,1.9-4.2,4.2-4.2h8.3c2.3,0,4.2,1.9,4.2,4.2C100,64.8,98.1,66.7,95.8,66.7z
	 M79.5,38.9c-1.6,1.6-4.3,1.6-5.9,0c-1.6-1.6-1.6-4.3,0-5.9l5.9-5.9c1.6-1.6,4.3-1.6,5.9,0c1.6,1.6,1.6,4.3,0,5.9L79.5,38.9z
	 M73.5,70.8h-9.1c1.4-2.5,2.2-5.3,2.2-8.3c0-9.2-7.5-16.7-16.7-16.7c-9.2,0-16.7,7.5-16.7,16.7c0,3,0.8,5.9,2.3,8.3h-9.1
	c-0.9-2.6-1.5-5.4-1.5-8.3c0-13.8,11.2-25,25-25c13.8,0,25,11.2,25,25C75,65.4,74.5,68.2,73.5,70.8z M50,29.2
	c-2.3,0-4.2-1.9-4.2-4.2v-8.3c0-2.3,1.9-4.2,4.2-4.2c2.3,0,4.2,1.9,4.2,4.2V25C54.2,27.3,52.3,29.2,50,29.2z M20.5,38.9L14.6,33
	c-1.6-1.6-1.6-4.3,0-5.9c1.6-1.6,4.3-1.6,5.9,0l5.9,5.9c1.6,1.6,1.6,4.3,0,5.9C24.8,40.6,22.2,40.6,20.5,38.9z M16.7,62.5
	c0,2.3-1.9,4.2-4.2,4.2H4.2c-2.3,0-4.2-1.9-4.2-4.2c0-2.3,1.9-4.2,4.2-4.2h8.3C14.8,58.3,16.7,60.2,16.7,62.5z M50,54.2
	c1.2,0,2.1,0.9,2.1,2.1v8l5.3-5.3c0.8-0.8,2.1-0.8,2.9,0s0.8,2.1,0,2.9l-8.8,8.8c-0.8,0.8-2.1,0.8-2.9,0l-8.8-8.8
	c-0.8-0.8-0.8-2.1,0-2.9c0.8-0.8,2.1-0.8,2.9,0l5.3,5.3v-8C47.9,55.1,48.8,54.2,50,54.2z M29.2,79.2h41.7c2.3,0,4.2,1.9,4.2,4.2
	c0,2.3-1.9,4.2-4.2,4.2H29.2c-2.3,0-4.2-1.9-4.2-4.2C25,81,26.9,79.2,29.2,79.2z"/>
</svg>
