<?xml version="1.0" encoding="utf-8"?>
<!-- Generator: Adobe Illustrator 21.0.0, SVG Export Plug-In . SVG Version: 6.00 Build 0)  -->
<svg version="1.1" id="Layer_1" xmlns="http://www.w3.org/2000/svg" xmlns:xlink="http://www.w3.org/1999/xlink" x="0px" y="0px"
	 viewBox="0 0 100 100" style="enable-background:new 0 0 100 100;" xml:space="preserve">
<g id="surface1">
	<path d="M48.5,0c-2,0.1-4.1,0.3-6.2,0.6h-0.1C21.7,4,5.1,20.1,1,40.4C-0.3,46.2-0.2,51.6,0.6,57c0,0,0,0.1,0,0.1
		c1.3,9,12.9,12.9,19.5,6.4c4.7-4.7,11.7-4.7,16.4,0s4.7,11.7,0,16.4c-6.6,6.6-2.7,18.3,6.4,19.5c0,0,0.1,0,0.1,0
		c5.3,0.8,10.7,0.9,16.4-0.4c0,0,0.1,0,0.1,0C80,95.2,96.1,78.3,99.4,57.9v-0.1c4.3-29.3-17.1-54.9-45-57.6C52.5,0.1,50.5,0,48.5,0z
		 M48.6,7.7c1.7-0.1,3.5,0,5.2,0.1C77.5,10,95.6,31.7,91.9,56.7c-2.8,17.2-16.6,31.6-33.7,34.8H58c-4.9,1-9.4,1.1-14,0.4
		c-3.1-0.4-4.6-3.9-2-6.5c7.6-7.6,7.6-19.8,0-27.3s-19.8-7.6-27.3,0c-2.6,2.6-6.1,1.1-6.5-2c-0.7-4.6-0.7-9.1,0.4-14
		c3.5-17.2,17.6-31,34.8-33.8C45.1,7.9,46.8,7.8,48.6,7.7z M42.3,15.5c-4.2,0-7.7,3.4-7.7,7.7s3.4,7.7,7.7,7.7s7.7-3.4,7.7-7.7
		S46.6,15.5,42.3,15.5z M69.2,23.2c-4.2,0-7.7,3.4-7.7,7.7s3.4,7.7,7.7,7.7c4.2,0,7.7-3.4,7.7-7.7S73.4,23.2,69.2,23.2z M23.2,30.8
		c-4.2,0-7.7,3.4-7.7,7.7s3.4,7.7,7.7,7.7s7.7-3.4,7.7-7.7S27.4,30.8,23.2,30.8z M76.9,50c-4.2,0-7.7,3.4-7.7,7.7s3.4,7.7,7.7,7.7
		c4.2,0,7.7-3.4,7.7-7.7S81.1,50,76.9,50z M61.5,69.2c-4.2,0-7.7,3.4-7.7,7.7s3.4,7.7,7.7,7.7s7.7-3.4,7.7-7.7S65.8,69.2,61.5,69.2z
		"/>
</g>
</svg>
