<?xml version="1.0" encoding="utf-8"?>
<!-- Generator: Adobe Illustrator 21.0.0, SVG Export Plug-In . SVG Version: 6.00 Build 0)  -->
<svg version="1.1" xmlns="http://www.w3.org/2000/svg" xmlns:xlink="http://www.w3.org/1999/xlink" x="0px" y="0px"
	 viewBox="0 0 250 250" style="enable-background:new 0 0 250 250;" xml:space="preserve">
<style type="text/css">
	.st0{fill:#A7A7A7;}
	.st1{fill:none;stroke:#A7A7A7;stroke-width:16;stroke-linecap:round;stroke-miterlimit:10;}
</style>
<g id="Layer_3">
	<g>
		<path class="st0" d="M125,88c20.4,0,37,16.6,37,37s-16.6,37-37,37s-37-16.6-37-37S104.6,88,125,88 M125,66c-32.6,0-59,26.4-59,59
			s26.4,59,59,59s59-26.4,59-59S157.6,66,125,66L125,66z"/>
	</g>
</g>
<g id="Layer_2">
	<g>
		<line class="st1" x1="125" y1="42.2" x2="125" y2="8"/>
	</g>
	<g>
		<line class="st1" x1="66.5" y1="66.5" x2="42.3" y2="42.3"/>
	</g>
	<g>
		<line class="st1" x1="42.2" y1="125" x2="8" y2="125"/>
	</g>
	<g>
		<line class="st1" x1="66.5" y1="183.5" x2="42.3" y2="207.7"/>
	</g>
	<g>
		<line class="st1" x1="125" y1="207.8" x2="125" y2="242"/>
	</g>
	<g>
		<line class="st1" x1="183.5" y1="183.5" x2="207.7" y2="207.7"/>
	</g>
	<g>
		<line class="st1" x1="207.8" y1="125" x2="242" y2="125"/>
	</g>
	<g>
		<line class="st1" x1="183.5" y1="66.5" x2="207.7" y2="42.3"/>
	</g>
</g>
</svg>
