<?xml version="1.0" encoding="utf-8"?>
<!-- Generator: Adobe Illustrator 21.0.0, SVG Export Plug-In . SVG Version: 6.00 Build 0)  -->
<svg version="1.1" id="Layer_2" xmlns="http://www.w3.org/2000/svg" xmlns:xlink="http://www.w3.org/1999/xlink" x="0px" y="0px"
	 viewBox="0 0 100 100" style="enable-background:new 0 0 100 100;" xml:space="preserve">
<g>
	<path d="M39.2,68.7v-4.2c0-4.9,0.9-8.9,2.6-12.1c1.8-3.2,4.9-6.5,9.3-10c5.2-4.1,8.6-7.4,10.2-9.7c1.5-2.3,2.3-5,2.3-8.2
		c0-3.7-1.2-6.5-3.7-8.5s-6-3-10.6-3c-4.2,0-8.1,0.6-11.6,1.8s-7.1,2.6-10.4,4.3L21.5,7.5c9-5,18.5-7.5,28.8-7.5
		c8.6,0,15.5,2.1,20.6,6.3c5.1,4.2,7.6,10.1,7.6,17.5c0,3.3-0.5,6.3-1.5,8.8c-1,2.6-2.4,5-4.4,7.4c-2,2.3-5.3,5.4-10.2,9.1
		c-4.1,3.2-6.8,5.9-8.2,8c-1.4,2.1-2.1,5-2.1,8.5v3H39.2z M36.5,89.8c0-6.7,3.2-10,9.7-10c3.2,0,5.6,0.9,7.3,2.6
		c1.7,1.7,2.5,4.2,2.5,7.4c0,3.1-0.8,5.6-2.5,7.4c-1.7,1.8-4.1,2.7-7.2,2.7c-3.1,0-5.5-0.9-7.2-2.7C37.3,95.5,36.5,93,36.5,89.8z"/>
</g>
</svg>
