<?xml version="1.0" encoding="utf-8"?>
<!-- Generator: Adobe Illustrator 21.0.0, SVG Export Plug-In . SVG Version: 6.00 Build 0)  -->
<svg version="1.1" id="Layer_1" xmlns="http://www.w3.org/2000/svg" xmlns:xlink="http://www.w3.org/1999/xlink" x="0px" y="0px"
	 viewBox="0 0 100 100" style="enable-background:new 0 0 100 100;" xml:space="preserve">
<path d="M95.8,54.2h-8.3c-2.3,0-4.2-1.9-4.2-4.2s1.9-4.2,4.2-4.2h8.3c2.3,0,4.2,1.9,4.2,4.2S98.1,54.2,95.8,54.2z M79.5,26.4
	c-1.6,1.6-4.3,1.6-5.9,0c-1.6-1.6-1.6-4.3,0-5.9l5.9-5.9c1.6-1.6,4.3-1.6,5.9,0c1.6,1.6,1.6,4.3,0,5.9L79.5,26.4z M50,75
	c-13.8,0-25-11.2-25-25c0-13.8,11.2-25,25-25c13.8,0,25,11.2,25,25C75,63.8,63.8,75,50,75z M50,33.3c-9.2,0-16.7,7.5-16.7,16.7
	c0,9.2,7.5,16.7,16.7,16.7S66.7,59.2,66.7,50C66.7,40.8,59.2,33.3,50,33.3z M50,16.7c-2.3,0-4.2-1.9-4.2-4.2V4.2
	C45.8,1.9,47.7,0,50,0c2.3,0,4.2,1.9,4.2,4.2v8.3C54.2,14.8,52.3,16.7,50,16.7z M20.5,26.4l-5.9-5.9c-1.6-1.6-1.6-4.3,0-5.9
	s4.3-1.6,5.9,0l5.9,5.9c1.6,1.6,1.6,4.3,0,5.9S22.2,28.1,20.5,26.4z M16.7,50c0,2.3-1.9,4.2-4.2,4.2H4.2C1.9,54.2,0,52.3,0,50
	s1.9-4.2,4.2-4.2h8.3C14.8,45.8,16.7,47.7,16.7,50z M20.5,73.6c1.6-1.6,4.3-1.6,5.9,0c1.6,1.6,1.6,4.3,0,5.9l-5.9,5.9
	c-1.6,1.6-4.3,1.6-5.9,0c-1.6-1.6-1.6-4.3,0-5.9L20.5,73.6z M50,83.3c2.3,0,4.2,1.9,4.2,4.2v8.3c0,2.3-1.9,4.2-4.2,4.2
	c-2.3,0-4.2-1.9-4.2-4.2v-8.3C45.8,85.2,47.7,83.3,50,83.3z M79.5,73.6l5.9,5.9c1.6,1.6,1.6,4.3,0,5.9c-1.6,1.6-4.3,1.6-5.9,0
	l-5.9-5.9c-1.6-1.6-1.6-4.3,0-5.9C75.2,71.9,77.8,71.9,79.5,73.6z"/>
</svg>
