<?xml version="1.0" encoding="utf-8"?>
<!-- Generator: Adobe Illustrator 21.0.0, SVG Export Plug-In . SVG Version: 6.00 Build 0)  -->
<svg version="1.1" id="Layer_1" xmlns="http://www.w3.org/2000/svg" xmlns:xlink="http://www.w3.org/1999/xlink" x="0px" y="0px"
	 viewBox="0 0 100 100" style="enable-background:new 0 0 100 100;" xml:space="preserve">
<path d="M96.3,53.7h-7.4c-2,0-3.7-1.7-3.7-3.7c0-2,1.7-3.7,3.7-3.7h7.4c2,0,3.7,1.7,3.7,3.7C100,52,98.3,53.7,96.3,53.7z M81.7,29
	c-1.4,1.4-3.8,1.4-5.2,0c-1.4-1.4-1.4-3.8,0-5.2l5.2-5.2c1.4-1.4,3.8-1.4,5.2,0c1.4,1.4,1.4,3.8,0,5.2L81.7,29z M76.3,58L76.3,58
	c3.2,3.9,5.2,8.8,5.2,14.3c0,12.3-9.9,22.2-22.2,22.2c-5.1,0-23.7,0-29.6,0C13.3,94.4,0,81.2,0,64.8s13.3-29.6,29.6-29.6
	c2.9,0,5.7,0.4,8.4,1.2c4.1-5.2,10.4-8.6,17.5-8.6c12.3,0,22.2,10,22.2,22.2C77.8,52.8,77.2,55.5,76.3,58z M7.4,64.8
	C7.4,77.1,17.4,87,29.6,87c6.7,0,24,0,29.6,0c8.2,0,14.8-6.6,14.8-14.8c0-8.2-6.6-14.8-14.8-14.8c-3,0-5.7,0.9-8,2.4
	C49,50,40.2,42.6,29.6,42.6C17.4,42.6,7.4,52.5,7.4,64.8z M55.6,35.2c-4.1,0-7.8,1.7-10.5,4.4c4.3,2.7,7.9,6.4,10.4,10.8
	c1.2-0.2,2.5-0.4,3.8-0.4c3.9,0,7.6,1,10.8,2.8l0,0c0.2-0.9,0.3-1.9,0.3-2.8C70.4,41.8,63.7,35.2,55.6,35.2z M55.6,20.4
	c-2,0-3.7-1.7-3.7-3.7V9.3c0-2,1.7-3.7,3.7-3.7c2,0,3.7,1.7,3.7,3.7v7.4C59.3,18.7,57.6,20.4,55.6,20.4z M29.4,29l-5.2-5.2
	c-1.4-1.4-1.4-3.8,0-5.2c1.4-1.4,3.8-1.4,5.2,0l5.2,5.2c1.4,1.4,1.4,3.8,0,5.2C33.2,30.5,30.8,30.5,29.4,29z"/>
</svg>
