<?xml version="1.0" encoding="utf-8"?>
<!-- Generator: Adobe Illustrator 21.0.0, SVG Export Plug-In . SVG Version: 6.00 Build 0)  -->
<svg version="1.1" id="Layer_1" xmlns="http://www.w3.org/2000/svg" xmlns:xlink="http://www.w3.org/1999/xlink" x="0px" y="0px"
	 viewBox="0 0 100 100" style="enable-background:new 0 0 100 100;" xml:space="preserve">
<path d="M36.4,86.4C16.3,86.4,0,70.1,0,50s16.3-36.4,36.4-36.4c13.6,0,25.5,7.5,31.7,18.6c1.5-0.3,3-0.5,4.6-0.5
	C87.8,31.8,100,44,100,59.1c0,15.1-12.2,27.3-27.3,27.3C66.4,86.4,43.6,86.4,36.4,86.4z M72.7,77.3c10,0,18.2-8.1,18.2-18.2
	c0-10-8.1-18.2-18.2-18.2c-3.6,0-7,1.1-9.8,2.9c-2.8-12.1-13.6-21.1-26.5-21.1C21.3,22.7,9.1,34.9,9.1,50
	c0,15.1,12.2,27.3,27.3,27.3C44.6,77.3,65.9,77.3,72.7,77.3z"/>
</svg>
