<?xml version="1.0" encoding="utf-8"?>
<!-- Generator: Adobe Illustrator 21.0.0, SVG Export Plug-In . SVG Version: 6.00 Build 0)  -->
<svg version="1.1" id="Layer_1" xmlns="http://www.w3.org/2000/svg" xmlns:xlink="http://www.w3.org/1999/xlink" x="0px" y="0px"
	 viewBox="0 0 100 100" style="enable-background:new 0 0 100 100;" xml:space="preserve">
<path d="M81.8,71.1v-10c5.4-3.1,9.1-9,9.1-15.7c0-10-8.1-18.2-18.2-18.2c-3.6,0-7,1.1-9.8,2.9C60.1,18.1,49.3,9.1,36.4,9.1
	C21.3,9.1,9.1,21.3,9.1,36.4c0,8.1,3.5,15.3,9.1,20.3v11.2C7.3,61.5,0,49.8,0,36.4C0,16.3,16.3,0,36.4,0C50,0,61.9,7.5,68.1,18.6
	c1.5-0.3,3-0.5,4.6-0.5c15.1,0,27.3,12.2,27.3,27.3C100,57.3,92.4,67.4,81.8,71.1z M31.8,45.5c2.5,0,4.5,2,4.5,4.5v36.4
	c0,2.5-2,4.5-4.5,4.5s-4.5-2-4.5-4.5V50C27.3,47.5,29.3,45.5,31.8,45.5z M50,54.5c2.5,0,4.5,2,4.5,4.5v36.4c0,2.5-2,4.5-4.5,4.5
	s-4.5-2-4.5-4.5V59.1C45.5,56.6,47.5,54.5,50,54.5z M68.2,45.5c2.5,0,4.5,2,4.5,4.5v36.4c0,2.5-2,4.5-4.5,4.5s-4.5-2-4.5-4.5V50
	C63.6,47.5,65.7,45.5,68.2,45.5z"/>
</svg>
