<?xml version="1.0" encoding="utf-8"?>
<!-- Generator: Adobe Illustrator 21.0.0, SVG Export Plug-In . SVG Version: 6.00 Build 0)  -->
<svg version="1.1" id="Layer_1" xmlns="http://www.w3.org/2000/svg" xmlns:xlink="http://www.w3.org/1999/xlink" x="0px" y="0px"
	 viewBox="0 0 100 100" style="enable-background:new 0 0 100 100;" xml:space="preserve">
<path d="M50,100c-12.3,0-22.2-9.9-22.2-22.2c0-5.6,2.1-10.7,5.6-14.7V16.7C33.3,7.5,40.8,0,50,0c9.2,0,16.7,7.5,16.7,16.7v46.4
	c3.4,3.9,5.6,9,5.6,14.7C72.2,90.1,62.3,100,50,100z M55.6,68.2V56.3V27.8V16.7c0-3.1-2.5-5.6-5.6-5.6s-5.6,2.5-5.6,5.6v11.1v28.5
	v11.9c-3.3,1.9-5.6,5.5-5.6,9.6c0,6.1,5,11.1,11.1,11.1c6.1,0,11.1-5,11.1-11.1C61.1,73.7,58.9,70.1,55.6,68.2z M50,86.1
	c-4.6,0-8.3-3.7-8.3-8.3s3.7-8.3,8.3-8.3c4.6,0,8.3,3.7,8.3,8.3S54.6,86.1,50,86.1z"/>
</svg>
