<?xml version="1.0" encoding="utf-8"?>
<!-- Generator: Adobe Illustrator 21.0.0, SVG Export Plug-In . SVG Version: 6.00 Build 0)  -->
<svg version="1.1" id="Layer_1" xmlns="http://www.w3.org/2000/svg" xmlns:xlink="http://www.w3.org/1999/xlink" x="0px" y="0px"
	 viewBox="0 0 100 100" style="enable-background:new 0 0 100 100;" xml:space="preserve">
<path d="M86.4,54.5L86.4,54.5h-6.8c-2.5,0-4.5-2-4.5-4.5s2-4.5,4.5-4.5h6.8c2.5,0,4.5-2,4.5-4.5c0-2.5-2-4.5-4.5-4.5
	c-2.5,0-4.5-2-4.5-4.5s2-4.5,4.5-4.5c0.3,0,0.6,0,0.9,0.1c7.1,0.5,12.7,6.3,12.7,13.5C100,48.4,93.9,54.5,86.4,54.5z M63.6,45.5
	h-4.5H43.2H13.6c-2.5,0-4.5,2-4.5,4.5s2,4.5,4.5,4.5h4.5h9.1h6.8h9.1H50h9.1h4.5c7.5,0,13.6,6.1,13.6,13.6c0,7.2-5.6,13.1-12.7,13.5
	c-0.3,0.1-0.6,0.1-0.9,0.1c-2.5,0-4.5-2-4.5-4.5c0-2.5,2-4.5,4.5-4.5c2.5,0,4.5-2,4.5-4.5c0-2.5-2-4.5-4.5-4.5h-4.5H50h-6.8h-9.1
	h-6.8h-9.1h-4.5C6.1,63.6,0,57.5,0,50c0-7.2,5.6-13.1,12.7-13.5c0.3-0.1,0.6-0.1,0.9-0.1l0,0h29.5h15.9h4.5c2.5,0,4.5-2,4.5-4.5
	s-2-4.5-4.5-4.5c-2.5,0-4.5-2-4.5-4.5c0-2.5,2-4.5,4.5-4.5c0.3,0,0.6,0,0.9,0.1c7.1,0.5,12.7,6.3,12.7,13.5
	C77.3,39.3,71.2,45.5,63.6,45.5z"/>
</svg>
