<?xml version="1.0" encoding="utf-8"?>
<!-- Generator: Adobe Illustrator 21.0.0, SVG Export Plug-In . SVG Version: 6.00 Build 0)  -->
<svg version="1.1" id="Layer_1" xmlns="http://www.w3.org/2000/svg" xmlns:xlink="http://www.w3.org/1999/xlink" x="0px" y="0px"
	 viewBox="0 0 100 100" style="enable-background:new 0 0 100 100;" xml:space="preserve">
<path d="M81.8,71.1v-10c5.4-3.1,9.1-9,9.1-15.7c0-10-8.1-18.2-18.2-18.2c-3.6,0-7,1.1-9.9,2.9C60.1,18.1,49.3,9.1,36.4,9.1
	C21.3,9.1,9.1,21.3,9.1,36.4c0,8.1,3.5,15.3,9.1,20.3v11.2C7.3,61.5,0,49.8,0,36.4C0,16.3,16.3,0,36.4,0C50,0,61.9,7.5,68.1,18.6
	c1.5-0.3,3-0.5,4.6-0.5c15.1,0,27.3,12.2,27.3,27.3C100,57.3,92.4,67.4,81.8,71.1z M31.8,72.7c-2.5,0-2.3-2-2.3-4.5V50
	c0-2.5-0.2-4.5,2.3-4.5s2.3,2,2.3,4.5v18.2C34.1,70.7,34.3,72.7,31.8,72.7z M31.8,81.8c2.5,0,4.5,2,4.5,4.5c0,2.5-2,4.5-4.5,4.5
	s-4.5-2-4.5-4.5C27.3,83.9,29.3,81.8,31.8,81.8z M50,81.8c-2.5,0-2.3-2-2.3-4.5V59.1c0-2.5-0.2-4.5,2.3-4.5s2.3,2,2.3,4.5v18.2
	C52.3,79.8,52.5,81.8,50,81.8z M50,90.9c2.5,0,4.5,2,4.5,4.5c0,2.5-2,4.5-4.5,4.5s-4.5-2-4.5-4.5C45.5,92.9,47.5,90.9,50,90.9z
	 M68.2,72.7c-2.5,0-2.3-2-2.3-4.5V50c0-2.5-0.2-4.5,2.3-4.5c2.5,0,2.3,2,2.3,4.5v18.2C70.5,70.7,70.7,72.7,68.2,72.7z M68.2,81.8
	c2.5,0,4.5,2,4.5,4.5c0,2.5-2,4.5-4.5,4.5c-2.5,0-4.5-2-4.5-4.5C63.6,83.9,65.7,81.8,68.2,81.8z"/>
</svg>
