<?xml version="1.0" encoding="utf-8"?>
<!-- Generator: Adobe Illustrator 21.0.0, SVG Export Plug-In . SVG Version: 6.00 Build 0)  -->
<svg version="1.1" id="Layer_1" xmlns="http://www.w3.org/2000/svg" xmlns:xlink="http://www.w3.org/1999/xlink" x="0px" y="0px"
	 viewBox="0 0 100 100" style="enable-background:new 0 0 100 100;" xml:space="preserve">
<path d="M72.7,72.7c-0.6,0-1.5,0-2.4,0l8.1-10c7.2-2.4,12.4-9.2,12.4-17.2c0-10-8.1-18.2-18.2-18.2c-3.6,0-7,1.1-9.8,2.9
	C60.1,18.1,49.3,9.1,36.4,9.1C21.3,9.1,9.1,21.3,9.1,36.4c0,12.4,8.3,22.8,19.6,26.1l-3.1,8.6C10.8,66.5,0,52.7,0,36.4
	C0,16.3,16.3,0,36.4,0C50,0,61.9,7.5,68.1,18.6c1.5-0.3,3-0.5,4.6-0.5c15.1,0,27.3,12.2,27.3,27.3S87.8,72.7,72.7,72.7z M45.5,40.9
	h22.7L54.5,63.6h15.9L40.9,100l8.2-27.3h-15L45.5,40.9z"/>
</svg>
