<?xml version="1.0" encoding="utf-8"?>
<!-- Generator: Adobe Illustrator 21.0.0, SVG Export Plug-In . SVG Version: 6.00 Build 0)  -->
<svg version="1.1" id="Layer_1" xmlns="http://www.w3.org/2000/svg" xmlns:xlink="http://www.w3.org/1999/xlink" x="0px" y="0px"
	 viewBox="0 0 100 100" style="enable-background:new 0 0 100 100;" xml:space="preserve">
<path d="M81.8,75.7v-10c5.4-3.1,9.1-9,9.1-15.7c0-10-8.1-18.2-18.2-18.2c-3.6,0-7,1.1-9.8,2.9c-2.8-12.1-13.6-21.1-26.5-21.1
	c-15.1,0-27.3,12.2-27.3,27.3c0,8.1,3.5,15.3,9.1,20.3v11.2C7.3,66.1,0,54.4,0,40.9C0,20.8,16.3,4.5,36.4,4.5
	c13.6,0,25.5,7.5,31.7,18.6c1.5-0.3,3-0.5,4.6-0.5C87.8,22.7,100,34.9,100,50C100,61.9,92.4,71.9,81.8,75.7z M31.8,59.1
	c2.5,0,4.5,2,4.5,4.5c0,2.5-2,4.5-4.5,4.5c-2.5,0-4.5-2-4.5-4.5C27.3,61.1,29.3,59.1,31.8,59.1z M31.8,77.3c2.5,0,4.5,2,4.5,4.5
	c0,2.5-2,4.5-4.5,4.5c-2.5,0-4.5-2-4.5-4.5C27.3,79.3,29.3,77.3,31.8,77.3z M50,68.2c2.5,0,4.5,2,4.5,4.5c0,2.5-2,4.5-4.5,4.5
	c-2.5,0-4.5-2-4.5-4.5C45.5,70.2,47.5,68.2,50,68.2z M50,86.4c2.5,0,4.5,2,4.5,4.5c0,2.5-2,4.5-4.5,4.5c-2.5,0-4.5-2-4.5-4.5
	C45.5,88.4,47.5,86.4,50,86.4z M68.2,59.1c2.5,0,4.5,2,4.5,4.5c0,2.5-2,4.5-4.5,4.5c-2.5,0-4.5-2-4.5-4.5
	C63.6,61.1,65.7,59.1,68.2,59.1z M68.2,77.3c2.5,0,4.5,2,4.5,4.5c0,2.5-2,4.5-4.5,4.5c-2.5,0-4.5-2-4.5-4.5
	C63.6,79.3,65.7,77.3,68.2,77.3z"/>
</svg>
