<?xml version="1.0" encoding="utf-8"?>
<!-- Generator: Adobe Illustrator 21.0.0, SVG Export Plug-In . SVG Version: 6.00 Build 0)  -->
<svg version="1.1" id="Layer_1" xmlns="http://www.w3.org/2000/svg" xmlns:xlink="http://www.w3.org/1999/xlink" x="0px" y="0px"
	 viewBox="0 0 100 100" style="enable-background:new 0 0 100 100;" xml:space="preserve">
<path d="M2.7,65.9c-0.6-1.5-1.1-3-1.5-4.5H100c0,1.6-0.2,3.1-0.4,4.5H2.7z M18.8,20.5c5.2-2.9,11.2-4.5,17.6-4.5
	c6.4,0,12.4,1.7,17.6,4.5H18.8z M0.3,47.7c0.2-1.6,0.5-3.1,0.9-4.5H93c1.3,1.4,2.4,2.9,3.3,4.5H0.3z M2.7,38.6
	c0.6-1.6,1.4-3.1,2.2-4.5h62.9c0.1,0.2,0.2,0.3,0.3,0.5c1.5-0.3,3-0.5,4.6-0.5c5.6,0,10.7,1.7,15.1,4.5H2.7z M8,29.5
	c1.3-1.6,2.8-3.2,4.4-4.5h48c1.6,1.4,3,2.9,4.3,4.5H8z M99.6,56.8H0.3c-0.2-1.5-0.3-3-0.3-4.5h98.4C98.9,53.7,99.3,55.3,99.6,56.8z
	 M98.4,70.5c-0.6,1.6-1.3,3.1-2.1,4.5H8c-1.1-1.4-2.2-3-3.1-4.5H98.4z M12.4,79.5H93c-1.5,1.7-3.3,3.3-5.2,4.5h-69
	C16.5,82.8,14.3,81.3,12.4,79.5z"/>
</svg>
